<svg viewBox="0 0 1024 1024" version="1.1" xmlns="http://www.w3.org/2000/svg" width="128" height="128"><path d="M524.47744 48.97792a20.48 20.48 0 0 1-2.8672 28.82048L38.3488 473.56928a20.48 20.48 0 1 1-25.95328-31.68768L495.65696 46.11072a20.48 20.48 0 0 1 28.82048 2.8672z" fill="" ></path><path d="M493.08672 48.97792a20.48 20.48 0 0 0 2.8672 28.82048l483.26144 395.77088a20.48 20.48 0 1 0 25.95328-31.68768L521.9072 46.11072a20.48 20.48 0 0 0-28.82048 2.8672zM152.32 949.24288a20.48 20.48 0 0 1-20.48-20.48v-471.04a20.48 20.48 0 0 1 40.96 0v471.04a20.48 20.48 0 0 1-20.48 20.48zM431.54432 945.71008a20.48 20.48 0 0 1-20.48-20.48v-266.24a20.48 20.48 0 0 1 40.96 0v266.24a20.48 20.48 0 0 1-20.48 20.48z" fill=""></path><path d="M411.06432 658.99008a20.48 20.48 0 0 1 20.48-20.48h158.72a20.48 20.48 0 0 1 0 40.96h-158.72a20.48 20.48 0 0 1-20.48-20.48z" fill=""></path><path d="M591.36 945.71008a20.48 20.48 0 0 1-20.48-20.48v-266.24a20.48 20.48 0 0 1 40.96 0v266.24a20.48 20.48 0 0 1-20.48 20.48zM872.96 949.24288a20.48 20.48 0 0 1-20.48-20.48v-471.04a20.48 20.48 0 0 1 40.96 0v471.04a20.48 20.48 0 0 1-20.48 20.48z" fill="" ></path><path d="M862.72 910.08h-291.84v40.96h291.84a20.48 20.48 0 0 0 0-40.96zM452.02432 910.08H152.32a20.48 20.48 0 0 0 0 40.96h299.70432v-40.96z" fill="" ></path><path d="M172.8 437.24288H31.80544a20.48 20.48 0 0 0 0 40.96H172.8v-40.96zM986.88 437.24288H852.48v40.96h134.4a20.48 20.48 0 0 0 0-40.96z" fill="" ></path></svg>
