<svg viewBox="0 0 1024 1024" xmlns="http://www.w3.org/2000/svg" width="128" height="128"><path d="M353.40055 429.873511H102.797434q-36.60495 0-62.885427-26.280477T13.631531 339.769019V89.165903q0-36.60495 26.280476-62.885426t62.885427-26.280477h250.603116q37.543538 0 63.824015 26.280477t26.280476 62.885426v250.603116q0 37.543538-26.280476 63.824015t-63.824015 26.280477zM102.797434 37.543538q-21.587534 0-36.60495 15.017415T51.175069 89.165903v250.603116q0 21.587534 15.017415 36.60495t36.60495 15.017415h250.603116q21.587534 0 36.60495-15.017415t15.017415-36.60495V89.165903q0-21.587534-15.017415-36.60495t-36.60495-15.017415H102.797434z m250.603116 902.92209H102.797434q-36.60495 0-62.885427-26.280477T13.631531 851.299725V599.75802q0-36.60495 26.280476-62.885426t62.885427-26.280477h250.603116q37.543538 0 63.824015 26.280477t26.280476 62.885426v251.541705q0 36.60495-26.280476 62.885426t-63.824015 26.280477zM102.797434 549.074244q-21.587534 0-36.60495 15.017415t-15.017415 35.666361v251.541705q0 20.648946 15.017415 36.135655t36.60495 15.48671h250.603116q21.587534 0 36.60495-15.48671t15.017415-36.135655V599.75802q0-20.648946-15.017415-35.666361t-36.60495-15.017415H102.797434z m762.133822 391.391384H613.389551q-36.60495 0-62.885426-26.280477t-26.280477-62.885426V599.75802q0-36.60495 26.280477-62.885426t62.885426-26.280477h251.541705q36.60495 0 62.885426 26.280477t26.280477 62.885426v211.182402q0 8.447296-5.631531 13.609532t-13.609533 5.162237-13.140238-5.162237T916.553621 810.940422V599.75802q0-20.648946-15.48671-35.666361T864.931256 549.074244H613.389551q-20.648946 0-35.666361 15.017415t-15.017415 35.666361v251.541705q0 20.648946 15.017415 36.135655t35.666361 15.48671h251.541705q7.508708 0 13.140238 5.631531t5.631531 13.140238-5.631531 13.140238-13.140238 5.631531z m0-510.592117H613.389551q-36.60495 0-62.885426-26.280477t-26.280477-63.824015V89.165903q0-36.60495 26.280477-62.885426t62.885426-26.280477h251.541705q36.60495 0 62.885426 26.280477t26.280477 62.885426v250.603116q0 37.543538-26.280477 63.824015t-62.885426 26.280477zM613.389551 37.543538q-20.648946 0-35.666361 15.017415t-15.017415 36.60495v250.603116q0 21.587534 15.017415 36.60495t35.666361 15.017415h251.541705q20.648946 0 36.135655-15.017415t15.48671-36.60495V89.165903q0-21.587534-15.48671-36.60495T864.931256 37.543538H613.389551z"></path></svg>
