<svg viewBox="0 0 1024 1024" xmlns="http://www.w3.org/2000/svg" width="64" height="64"><path d="M748.495238 831.390476l-199.923809-109.714286c73.142857-58.514286 95.085714-173.104762 95.085714-236.495238v-134.095238c0-87.771429-117.028571-187.733333-236.495238-187.733333-119.466667 0-238.933333 97.52381-238.933334 187.733333v134.095238c0 58.514286 24.380952 175.542857 99.961905 236.495238l-204.8 112.152381s-53.638095 24.380952-53.638095 53.638096v80.457143c0 29.257143 24.380952 53.638095 53.638095 53.638095h685.104762c29.257143 0 53.638095-24.380952 53.638095-53.638095v-80.457143c0-34.133333-53.638095-56.07619-53.638095-56.076191z m-9.752381 121.904762H73.142857v-56.07619c4.87619-2.438095 9.752381-7.314286 17.066667-9.752381 2.438095 0 2.438095-2.438095 4.87619-2.438096l204.8-112.152381c19.504762-9.752381 31.695238-29.257143 34.133334-51.2 2.438095-21.942857-7.314286-41.447619-24.380953-56.07619-53.638095-41.447619-75.580952-136.533333-75.580952-187.733333v-134.095238c0-46.32381 85.333333-124.342857 175.542857-124.342858 92.647619 0 173.104762 78.019048 173.104762 124.342858v134.095238c0 48.761905-14.628571 143.847619-70.704762 187.733333-17.066667 12.190476-26.819048 34.133333-24.380952 56.07619 2.438095 21.942857 14.628571 39.009524 31.695238 51.2l199.923809 109.714286c2.438095 0 4.87619 2.438095 4.876191 2.438095l14.628571 7.314286v60.952381z m231.619048-280.380952l-202.361905-109.714286c73.142857-58.514286 97.52381-173.104762 97.52381-236.495238V190.171429c0-87.771429-121.904762-187.733333-238.933334-187.733334-78.019048 0-156.038095 41.447619-202.361905 95.085715 26.819048 2.438095 56.07619 2.438095 80.457143 9.75238 34.133333-26.819048 75.580952-41.447619 121.904762-41.447619 92.647619 0 175.542857 78.019048 175.542857 124.342858v134.095238c0 48.761905-19.504762 143.847619-73.142857 187.733333-17.066667 12.190476-26.819048 34.133333-24.380952 56.07619 2.438095 21.942857 14.628571 39.009524 31.695238 51.2l202.361905 109.714286c2.438095 0 4.87619 2.438095 4.87619 2.438095l14.628572 7.314286v56.076191H828.952381c19.504762 14.628571 24.380952 36.571429 31.695238 63.390476h104.838095c29.257143 0 53.638095-24.380952 53.638096-53.638095v-80.457143c4.87619-29.257143-48.761905-51.2-48.761905-51.2z"></path></svg>
