<svg viewBox="0 0 1024 1024" xmlns="http://www.w3.org/2000/svg" width="128" height="128"><path d="M963.869893 760.88337c-17.863826-7.297255-105.069639-36.955902-141.23079-49.202286 64.085797-73.351866 103.425951-168.866436 103.42595-273.954138 0-230.730544-187.055387-417.767868-417.785931-417.767869S90.511254 207.014464 90.511254 437.745008c0 4.02794 0.36125 7.965568 0.596063 11.939321-0.108375 1.029563-0.559938 1.932689-0.559938 2.980315a29.821209 29.821209 0 1 0 59.642419 0h0.776688c-0.198688-4.985254-0.776688-9.862132-0.776688-14.937698 0-197.748395 160.304805-358.089325 358.107387-358.089325 197.766457 0 358.089325 160.34093 358.089325 358.107387 0 97.934947-39.466591 186.513512-103.155013 251.177309l-31.121711-12.463134s-88.47019-27.45502-104.437451-29.839272c-27.581458-4.298878-49.509349-0.559938-65.512736 22.831017-13.29401 19.579764-16.689762 42.735906-8.977069 61.900233 4.768503 11.722571 37.642278 36.197277 58.956043 63.020108-51.38785-0.07225-138.069851-0.776688-223.216538-28.376208-33.325337-10.801383-88.000564-59.190856-134.276723-104.455514-53.898539-56.607916-79.727933-104.455514-134.312849-104.455514-20.26614 0-48.100473-0.578-64.248359 13.65526-20.19389 17.827701-30.363085 52.471601-4.587879 119.4474 47.50441 123.385028 222.2231 314.50448 369.559021 314.50448h529.267763a35.294151 35.294151 0 0 0 35.43865-35.203838v-176.073379a35.041276 35.041276 0 0 0-21.891766-32.530586z m-37.786777 184.12926H418.797432c-108.031892 0-271.118324-178.09638-309.699852-279.047767-11.198758-29.333521-7.40563-41.164468-5.888379-42.483031 4.587878-4.009878 7.206943-4.009878 8.670006-4.009878 23.950893 0 71.50949 50.195724 106.207578 86.880688 44.542158 47.034784 90.637691 95.65907 140.21929 114.715022 94.340507 36.197277 182.160446 34.463275 239.54505 34.463275 45.788471 0 73.406054 0.21675 74.616243 0 12.517322-2.149439 24.745643-6.39413 29.062583-18.261201a35.005151 35.005151 0 0 0-6.105129-34.806463c-29.893459-35.330276-73.026741-81.245185-82.635998-96.146758 0.307063-0.65025 8.688069 1.119876 8.561631 0.975376 25.251393 3.847315 190.920765 57.384605 304.768786 103.480138v134.240599h-0.036125z m-566.98229-447.607141v44.776971h119.339024v134.276723h44.776971v-134.276723h119.339025v-44.776971h-119.339025v-74.598179h119.339025V378.048402h-94.954632l94.954632-149.196359h-59.660482l-82.057997 128.948282-82.057998-128.948282h-59.660481l94.918507 149.196359h-94.918507v44.77697h119.339025v74.59818h-119.357087z m0 0"></path></svg>
