<svg viewBox="0 0 1024 1024" xmlns="http://www.w3.org/2000/svg" width="128" height="128"><path d="M733.784 484.312H539.688V290.216a27.72 27.72 0 1 0-55.448 0V484.32H290.128a27.728 27.728 0 1 0 0 55.448h194.104v194.104a27.728 27.728 0 0 0 55.448 0V539.768h194.104a27.72 27.72 0 1 0 0-55.456" fill="#323232"></path><path d="M868.448 95.976H155.312a59.44 59.44 0 0 0-59.432 59.432v713.144a59.44 59.44 0 0 0 59.432 59.432h713.144a59.432 59.432 0 0 0 59.432-59.432V155.4a59.44 59.44 0 0 0-59.44-59.424m0 713.144a59.432 59.432 0 0 1-59.432 59.432h-624a29.712 29.712 0 0 1-29.712-29.712V185.12a29.712 29.712 0 0 1 29.712-29.712h653.712a29.712 29.712 0 0 1 29.712 29.712v624z" fill="#323232"></path></svg>
