<svg viewBox="0 0 1024 1024" xmlns="http://www.w3.org/2000/svg" width="128" height="128"><path d="M940.486826 616.070263l-135.548307-97.003764 131.693852-94.434128a39.82936 39.82936 0 0 0 0-68.737766L555.041405 83.513174a88.652447 88.652447 0 0 0-96.361355 0L77.089084 355.894605a39.82936 39.82936 0 0 0 0 68.737766l131.693852 94.434128L77.089084 612.858218a39.82936 39.82936 0 0 0 0 68.737767l381.590966 273.023839a88.652447 88.652447 0 0 0 96.361355 0l381.590966-273.023839a38.544542 38.544542 0 0 0 3.854455-65.525722zM139.40276 390.584693l356.537014-256.963614a26.981179 26.981179 0 0 1 21.199498 0l356.537014 256.963614-123.984943 88.652446-55.247177 39.186951L517.781681 642.409034a26.981179 26.981179 0 0 1-21.199498 0L321.204517 519.066499l-55.247177-39.186951z m378.378921 513.927227a26.981179 26.981179 0 0 1-21.199498 0l-356.537014-256.963614 123.984944-89.294856 192.72271 139.402761a88.652447 88.652447 0 0 0 96.361355 0l192.72271-139.402761 124.627353 89.294856z"></path></svg>
