<svg viewBox="0 0 1024 1024" xmlns="http://www.w3.org/2000/svg" width="128" height="128"><path d="M515.519 807.932c-9.311-2.6645352591003757e-15-18.623999999999995-3.5400000000000036-25.707-10.666000000000011-14.209999999999997-14.213000000000003-14.209999999999992-37.224000000000004 1.7763568394002505e-14-51.437l241.0070000000001-240.99499999999995-241.00799999999992-241.02600000000004c-14.210999999999997-14.209000000000003-14.210999999999991-37.246 1.7763568394002505e-14-51.434 14.213000000000005-14.210999999999997 37.226-14.209999999999987 51.44199999999999 7.105427357601002e-15l266.73799999999983 266.7520000000001c14.209999999999997 14.209000000000001 14.209999999999987 37.245999999999995-1.7763568394002505e-14 51.434l-266.7380000000001 266.7259999999999c-7.109000000000003 7.1039999999999965-16.418 10.645999999999994-25.733000000000004 10.64599999999999v0z"></path><path d="M240.2349999999999 807.932c-9.311-2.6645352591003757e-15-18.623999999999995-3.5400000000000036-25.70599999999999-10.666000000000007-14.210999999999997-14.213000000000005-14.210999999999986-37.224 1.7763568394002505e-14-51.437l241.0070000000001-240.99499999999995-241.00799999999992-241.02600000000004c-14.210999999999997-14.209000000000003-14.210999999999991-37.246 1.7763568394002505e-14-51.434 14.213000000000003-14.209999999999997 37.22500000000001-14.210999999999991 51.44 2.1316282072803006e-14l266.737 266.752c14.210999999999997 14.209000000000003 14.210999999999991 37.246-1.7763568394002505e-14 51.434l-266.7370000000001 266.726c-7.109000000000003 7.1039999999999965-16.418 10.645999999999994-25.732 10.64599999999999v0z"></path></svg>
